<svg xmlns="http://www.w3.org/2000/svg" xmlns:xlink="http://www.w3.org/1999/xlink" viewBox="0 0 64 63.9"><defs><linearGradient id="a" x1="32.05" x2="32.05" y2="31.95" gradientUnits="userSpaceOnUse"><stop offset="0" stop-color="#fdd66e"/><stop offset="0.16" stop-color="#f8cd5f"/><stop offset="0.44" stop-color="#f1c24b"/><stop offset="0.73" stop-color="#ecba3e"/><stop offset="1" stop-color="#ebb83a"/></linearGradient><linearGradient id="b" x1="4.38" y1="15.98" x2="32.05" y2="31.95" xlink:href="#a"/><linearGradient id="c" x1="59.72" y1="15.97" x2="32.05" y2="31.95" xlink:href="#a"/><linearGradient id="d" x1="59.72" y1="47.93" x2="32.05" y2="31.95" xlink:href="#a"/><linearGradient id="e" x1="32.05" y1="63.9" x2="32.05" y2="31.95" xlink:href="#a"/><linearGradient id="f" x1="4.87" y1="47.64" x2="31.88" y2="32.05" xlink:href="#a"/></defs><title>Bloom_App_Icon</title><path d="M32.05,32A44.65,44.65,0,0,0,37.86,5.27c-.67-7-11-7-11.63,0A44.65,44.65,0,0,0,32.05,32Z" style="fill:url(#a)"/><path d="M32.05,32a44.7,44.7,0,0,0-20.2-18.37C5.43,10.65.29,19.56,6,23.65A44.65,44.65,0,0,0,32.05,32Z" style="fill:url(#b)"/><path d="M52.25,13.57A44.72,44.72,0,0,0,32.05,32a44.65,44.65,0,0,0,26-8.3C63.81,19.55,58.67,10.64,52.25,13.57Z" style="fill:url(#c)"/><path d="M58.06,40.25a44.69,44.69,0,0,0-26-8.3,44.66,44.66,0,0,0,20.2,18.38C58.67,53.26,63.81,44.35,58.06,40.25Z" style="fill:url(#d)"/><path d="M32.05,32a44.65,44.65,0,0,0-5.81,26.68c.67,7,11,7,11.63,0A44.73,44.73,0,0,0,32.05,32Z" style="fill:url(#e)"/><path d="M32,32A45,45,0,0,0,6,40.3c-5.76,4.1-.62,13,5.81,10.07A45,45,0,0,0,32,32Z" style="fill:url(#f)"/><path d="M32.05,32a44.65,44.65,0,0,0,18.37-20.2c2.93-6.42-6-11.56-10.07-5.81A44.67,44.67,0,0,0,32.05,32Z" style="fill:#fdd66e"/><path d="M32.05,32A44.62,44.62,0,0,0,23.74,6c-4.1-5.75-13-.61-10.07,5.81A44.59,44.59,0,0,0,32.05,32Z" style="fill:#fdd66e"/><path d="M58.73,26.14A44.71,44.71,0,0,0,32.05,32a44.66,44.66,0,0,0,26.68,5.82C65.76,37.09,65.76,26.81,58.73,26.14Z" style="fill:#fdd66e"/><path d="M50.43,52.15A44.72,44.72,0,0,0,32.05,32a44.68,44.68,0,0,0,8.3,26C44.45,63.72,53.36,58.58,50.43,52.15Z" style="fill:#fdd66e"/><path d="M32.05,32a44.64,44.64,0,0,0-18.37,20.2c-2.93,6.42,6,11.57,10.07,5.81A44.69,44.69,0,0,0,32.05,32Z" style="fill:#fdd66e"/><path d="M32,32A45,45,0,0,0,5.28,26.14c-7,.67-7,11,0,11.63A45.07,45.07,0,0,0,32,32Z" style="fill:#fdd66e"/><circle cx="32" cy="31.95" r="8.98" style="fill:#444a66"/></svg>